<?xml version="1.0" encoding="UTF-8"?>
<svg id="Layer_1" xmlns="http://www.w3.org/2000/svg" xmlns:xlink="http://www.w3.org/1999/xlink" version="1.1" viewBox="0 0 329.1 50.1">
  <!-- Generator: Adobe Illustrator 29.8.2, SVG Export Plug-In . SVG Version: 2.1.1 Build 3)  -->
  <defs>
    <style>
      .st0 {
        fill: none;
      }

      .st1 {
        fill: #f0529c;
      }

      .st2 {
        clip-path: url(#clippath);
      }
    </style>
    <clipPath id="clippath">
      <rect class="st0" y="0" width="329.1" height="50.1"/>
    </clipPath>
  </defs>
  <g class="st2">
    <path class="st1" d="M18.5,20.7h-9.3v-8.8h7.5c1,0,1.8-.8,1.8-1.8V2.6h8.8v9.3c0,4.9-3.9,8.8-8.8,8.8M9.3,21.6H0v8.8h7.5c1,0,1.8.8,1.8,1.8v7.5h8.8v-9.3c0-4.9-3.9-8.8-8.8-8.8M38.8,21.1c-1,0-1.8-.8-1.8-1.8v-7.5h-8.8v9.3c0,4.9,3.9,8.8,8.8,8.8h9.3v-8.8h-7.5ZM19,39.7v9.3h8.8v-7.5c0-1,.8-1.8,1.8-1.8h7.5v-8.8h-9.3c-4.9,0-8.8,3.9-8.8,8.8"/>
    <path class="st1" d="M291.8,49h37.3v-5.8h-26.9l14.2-11.2c8.3-6.5,11.9-11.1,11.9-17.3s-4.1-13.5-16.6-13.5-19.9,10.8-20,19.8h7.6c0-8.1,3.4-13.9,12.5-13.9s9,3.4,9,7.6-1,5.9-5.1,9.2l-23.8,19.3v5.8ZM238.5,31.5c0-9.3,3.4-13,11-13s11,3.7,11,13-3.4,13-11,13-11-3.7-11-13M249.5,50.1c12.2,0,18.1-8.4,18.1-18.7s-5.9-18.5-18.1-18.5-18.1,8.3-18.1,18.5,5.9,18.7,18.1,18.7M219,27.8v21.2h7v-21.8c0-9.2-3.7-14.3-12-14.3s-10.8,3.8-12.8,9c-1.3-5.9-4.8-9-11.4-9s-10.3,3.6-12.3,8.8v-7.6h-7v35h7v-14.8c0-11.1,3.6-15.5,9.9-15.5s7.4,2.5,7.4,9.1v21.2h6.9v-14.8c0-11.1,3.5-15.5,9.9-15.5s7.4,2.5,7.4,9.1M155.7,49h7V0h-7v49ZM120.8,31.5c0-9.3,3.4-13,11-13s11,3.7,11,13-3.4,13-11,13-11-3.7-11-13M131.8,50.1c12.2,0,18.1-8.4,18.1-18.7s-5.9-18.5-18.1-18.5-18.1,8.3-18.1,18.5,5.9,18.7,18.1,18.7M107.6,2.4h-12.4l-13.8,39.5L67.7,2.4h-12.5v46.5h7.2V8l14.3,41h9.5l14.3-41v41h7.2V2.4Z"/>
  </g>
</svg>